<svg width="25" height="25" viewBox="0 0 25 25" fill="none" xmlns="http://www.w3.org/2000/svg">
<path d="M12.3591 20.7459C11.5257 20.7459 10.8174 20.4542 10.2341 19.8709C9.65074 19.2875 9.35907 18.5792 9.35907 17.7459H11.3591C11.3591 18.0292 11.4549 18.2667 11.6466 18.4584C11.8382 18.65 12.0757 18.7459 12.3591 18.7459C12.6424 18.7459 12.8799 18.65 13.0716 18.4584C13.2632 18.2667 13.3591 18.0292 13.3591 17.7459C13.3591 17.4625 13.2632 17.225 13.0716 17.0334C12.8799 16.8417 12.6424 16.7459 12.3591 16.7459H2.85907V14.7459H12.3591C13.1924 14.7459 13.9007 15.0375 14.4841 15.6209C15.0674 16.2042 15.3591 16.9125 15.3591 17.7459C15.3591 18.5792 15.0674 19.2875 14.4841 19.8709C13.9007 20.4542 13.1924 20.7459 12.3591 20.7459ZM2.85907 10.7459V8.74585H16.3591C16.7924 8.74585 17.1507 8.60418 17.4341 8.32085C17.7174 8.03752 17.8591 7.67918 17.8591 7.24585C17.8591 6.81252 17.7174 6.45418 17.4341 6.17085C17.1507 5.88752 16.7924 5.74585 16.3591 5.74585C15.9257 5.74585 15.5674 5.88752 15.2841 6.17085C15.0007 6.45418 14.8591 6.81252 14.8591 7.24585H12.8591C12.8591 6.26252 13.1966 5.43335 13.8716 4.75835C14.5466 4.08335 15.3757 3.74585 16.3591 3.74585C17.3424 3.74585 18.1716 4.08335 18.8466 4.75835C19.5216 5.43335 19.8591 6.26252 19.8591 7.24585C19.8591 8.22918 19.5216 9.05835 18.8466 9.73335C18.1716 10.4083 17.3424 10.7459 16.3591 10.7459H2.85907ZM19.3591 18.7459V16.7459C19.7924 16.7459 20.1507 16.6042 20.4341 16.3209C20.7174 16.0375 20.8591 15.6792 20.8591 15.2459C20.8591 14.8125 20.7174 14.4542 20.4341 14.1709C20.1507 13.8875 19.7924 13.7459 19.3591 13.7459H2.85907V11.7459H19.3591C20.3424 11.7459 21.1716 12.0834 21.8466 12.7584C22.5216 13.4334 22.8591 14.2625 22.8591 15.2459C22.8591 16.2292 22.5216 17.0584 21.8466 17.7334C21.1716 18.4084 20.3424 18.7459 19.3591 18.7459Z" fill="#A7A7C0"/>
</svg>
