<svg width="25" height="25" viewBox="0 0 25 25" fill="none" xmlns="http://www.w3.org/2000/svg">
<path d="M6.87177 19.741C6.58843 19.741 6.35093 19.6451 6.15927 19.4535C5.9676 19.2618 5.87177 19.0243 5.87177 18.741C5.87177 18.4576 5.9676 18.2201 6.15927 18.0285C6.35093 17.8368 6.58843 17.741 6.87177 17.741C7.1551 17.741 7.3926 17.8368 7.58427 18.0285C7.77593 18.2201 7.87177 18.4576 7.87177 18.741C7.87177 19.0243 7.77593 19.2618 7.58427 19.4535C7.3926 19.6451 7.1551 19.741 6.87177 19.741ZM18.8718 19.741C18.5884 19.741 18.3509 19.6451 18.1593 19.4535C17.9676 19.2618 17.8718 19.0243 17.8718 18.741C17.8718 18.4576 17.9676 18.2201 18.1593 18.0285C18.3509 17.8368 18.5884 17.741 18.8718 17.741C19.1551 17.741 19.3926 17.8368 19.5843 18.0285C19.7759 18.2201 19.8718 18.4576 19.8718 18.741C19.8718 19.0243 19.7759 19.2618 19.5843 19.4535C19.3926 19.6451 19.1551 19.741 18.8718 19.741ZM9.87177 23.741C9.58843 23.741 9.35093 23.6451 9.15927 23.4535C8.9676 23.2618 8.87177 23.0243 8.87177 22.741C8.87177 22.4576 8.9676 22.2201 9.15927 22.0285C9.35093 21.8368 9.58843 21.741 9.87177 21.741C10.1551 21.741 10.3926 21.8368 10.5843 22.0285C10.7759 22.2201 10.8718 22.4576 10.8718 22.741C10.8718 23.0243 10.7759 23.2618 10.5843 23.4535C10.3926 23.6451 10.1551 23.741 9.87177 23.741ZM12.8718 19.741C12.5884 19.741 12.3509 19.6451 12.1593 19.4535C11.9676 19.2618 11.8718 19.0243 11.8718 18.741C11.8718 18.4576 11.9676 18.2201 12.1593 18.0285C12.3509 17.8368 12.5884 17.741 12.8718 17.741C13.1551 17.741 13.3926 17.8368 13.5843 18.0285C13.7759 18.2201 13.8718 18.4576 13.8718 18.741C13.8718 19.0243 13.7759 19.2618 13.5843 19.4535C13.3926 19.6451 13.1551 19.741 12.8718 19.741ZM15.8718 23.741C15.5884 23.741 15.3509 23.6451 15.1593 23.4535C14.9676 23.2618 14.8718 23.0243 14.8718 22.741C14.8718 22.4576 14.9676 22.2201 15.1593 22.0285C15.3509 21.8368 15.5884 21.741 15.8718 21.741C16.1551 21.741 16.3926 21.8368 16.5843 22.0285C16.7759 22.2201 16.8718 22.4576 16.8718 22.741C16.8718 23.0243 16.7759 23.2618 16.5843 23.4535C16.3926 23.6451 16.1551 23.741 15.8718 23.741ZM8.37177 16.741C6.8551 16.741 5.55927 16.2035 4.48427 15.1285C3.40927 14.0535 2.87177 12.7576 2.87177 11.241C2.87177 9.85763 3.3301 8.6493 4.24677 7.61597C5.16343 6.58263 6.29677 5.9743 7.64677 5.79097C8.1801 4.84097 8.90927 4.09513 9.83427 3.55347C10.7593 3.0118 11.7718 2.74097 12.8718 2.74097C14.3718 2.74097 15.6759 3.22013 16.7843 4.17847C17.8926 5.1368 18.5634 6.33263 18.7968 7.76597C19.9468 7.86597 20.9134 8.34097 21.6968 9.19097C22.4801 10.041 22.8718 11.0576 22.8718 12.241C22.8718 13.491 22.4343 14.5535 21.5593 15.4285C20.6843 16.3035 19.6218 16.741 18.3718 16.741H8.37177ZM8.37177 14.741H18.3718C19.0718 14.741 19.6634 14.4993 20.1468 14.016C20.6301 13.5326 20.8718 12.941 20.8718 12.241C20.8718 11.541 20.6301 10.9493 20.1468 10.466C19.6634 9.98263 19.0718 9.74097 18.3718 9.74097H16.8718V8.74097C16.8718 7.64097 16.4801 6.6993 15.6968 5.91597C14.9134 5.13263 13.9718 4.74097 12.8718 4.74097C12.0718 4.74097 11.3426 4.95763 10.6843 5.39097C10.0259 5.8243 9.5301 6.40763 9.19677 7.14097L8.94677 7.74097H8.32177C7.37177 7.7743 6.55927 8.12847 5.88427 8.80347C5.20927 9.47847 4.87177 10.291 4.87177 11.241C4.87177 12.2076 5.21343 13.0326 5.89677 13.716C6.5801 14.3993 7.4051 14.741 8.37177 14.741Z" fill="#A7A7C0"/>
</svg>
