<svg width="25" height="25" viewBox="0 0 25 25" fill="none" xmlns="http://www.w3.org/2000/svg">
<path d="M12.869 22.2573C10.6523 22.2573 8.76479 21.4907 7.20646 19.9573C5.64812 18.424 4.86896 16.5573 4.86896 14.3573C4.86896 13.3073 5.07312 12.3032 5.48146 11.3448C5.88979 10.3865 6.46896 9.54066 7.21896 8.80732L12.869 3.25732L18.519 8.80732C19.269 9.54066 19.8481 10.3865 20.2565 11.3448C20.6648 12.3032 20.869 13.3073 20.869 14.3573C20.869 16.5573 20.0898 18.424 18.5315 19.9573C16.9731 21.4907 15.0856 22.2573 12.869 22.2573ZM12.869 20.2573C14.5356 20.2573 15.9523 19.6865 17.119 18.5448C18.2856 17.4032 18.869 16.0073 18.869 14.3573C18.869 13.574 18.719 12.8282 18.419 12.1198C18.119 11.4115 17.6856 10.7907 17.119 10.2573L12.869 6.05732L8.61896 10.2573C8.05229 10.7907 7.61896 11.4115 7.31896 12.1198C7.01896 12.8282 6.86896 13.574 6.86896 14.3573C6.86896 16.0073 7.45229 17.4032 8.61896 18.5448C9.78562 19.6865 11.2023 20.2573 12.869 20.2573Z" fill="#A7A7C0"/>
</svg>
