<svg width="25" height="25" viewBox="0 0 25 25" fill="none" xmlns="http://www.w3.org/2000/svg">
<g clip-path="url(#clip0_1_3602)">
<path d="M19.8591 8.75146C19.5757 8.75146 19.3382 8.65563 19.1466 8.46396C18.9549 8.2723 18.8591 8.0348 18.8591 7.75146C18.8591 7.61813 18.8882 7.48897 18.9466 7.36397C19.0049 7.23897 19.0757 7.1348 19.1591 7.05147C19.3591 6.85146 19.8174 6.62646 20.5341 6.37646L21.6091 6.00146C21.4757 6.3848 21.3507 6.74313 21.2341 7.07647C21.1341 7.3598 21.0216 7.6348 20.8966 7.90146C20.7716 8.16813 20.6591 8.35146 20.5591 8.45147C20.4757 8.5348 20.3716 8.60563 20.2466 8.66396C20.1216 8.7223 19.9924 8.75146 19.8591 8.75146ZM4.85907 21.7515C4.30907 21.7515 3.83824 21.5556 3.44657 21.164C3.0549 20.7723 2.85907 20.3015 2.85907 19.7515V5.75146C2.85907 5.20146 3.0549 4.73063 3.44657 4.33896C3.83824 3.9473 4.30907 3.75146 4.85907 3.75146H10.8591C11.4091 3.75146 11.8799 3.9473 12.2716 4.33896C12.6632 4.73063 12.8591 5.20146 12.8591 5.75146V13.9265C13.0091 13.8765 13.1674 13.8348 13.3341 13.8015C13.5007 13.7681 13.6757 13.7515 13.8591 13.7515C14.6924 13.7515 15.4007 14.0431 15.9841 14.6265C16.5674 15.2098 16.8591 15.9181 16.8591 16.7515V18.7515C16.8591 19.0348 16.9549 19.2723 17.1466 19.464C17.3382 19.6556 17.5757 19.7515 17.8591 19.7515C18.1424 19.7515 18.3799 19.6556 18.5716 19.464C18.7632 19.2723 18.8591 19.0348 18.8591 18.7515V13.7515H17.8591V12.3265C16.9591 11.9431 16.2341 11.3431 15.6841 10.5265C15.1341 9.7098 14.8591 8.7848 14.8591 7.75146C14.8591 6.36813 15.3466 5.18896 16.3216 4.21396C17.2966 3.23896 18.4757 2.75146 19.8591 2.75146C21.2424 2.75146 22.4216 3.23896 23.3966 4.21396C24.3716 5.18896 24.8591 6.36813 24.8591 7.75146C24.8591 8.7848 24.5841 9.7098 24.0341 10.5265C23.4841 11.3431 22.7591 11.9431 21.8591 12.3265V13.7515H20.8591V18.7515C20.8591 19.5848 20.5674 20.2931 19.9841 20.8765C19.4007 21.4598 18.6924 21.7515 17.8591 21.7515C17.0257 21.7515 16.3174 21.4598 15.7341 20.8765C15.1507 20.2931 14.8591 19.5848 14.8591 18.7515V16.7515C14.8591 16.4681 14.7632 16.2306 14.5716 16.039C14.3799 15.8473 14.1424 15.7515 13.8591 15.7515C13.5757 15.7515 13.3382 15.8473 13.1466 16.039C12.9549 16.2306 12.8591 16.4681 12.8591 16.7515V19.7515C12.8591 20.3015 12.6632 20.7723 12.2716 21.164C11.8799 21.5556 11.4091 21.7515 10.8591 21.7515H4.85907ZM19.8591 10.7515C20.6924 10.7515 21.4007 10.4598 21.9841 9.87646C22.5674 9.29313 22.8591 8.5848 22.8591 7.75146C22.8591 6.91813 22.5674 6.2098 21.9841 5.62646C21.4007 5.04313 20.6924 4.75146 19.8591 4.75146C19.0257 4.75146 18.3174 5.04313 17.7341 5.62646C17.1507 6.2098 16.8591 6.91813 16.8591 7.75146C16.8591 8.5848 17.1507 9.29313 17.7341 9.87646C18.3174 10.4598 19.0257 10.7515 19.8591 10.7515ZM4.85907 19.7515H10.8591V17.7515L8.85907 19.7515V16.9265L10.8591 14.9265V12.7515L8.85907 14.7515V11.9265L10.8591 9.92647V7.75146L8.85907 9.75146V6.92647L10.0341 5.75146H5.68407L6.85907 6.92647V9.75146L4.85907 7.75146V9.92647L6.85907 11.9265V14.7515L4.85907 12.7515V14.9265L6.85907 16.9265V19.7515L4.85907 17.7515V19.7515Z" fill="#A7A7C0"/>
</g>
<defs>
<clipPath id="clip0_1_3602">
<rect width="24" height="24" fill="white" transform="translate(0.861877 0.748047)"/>
</clipPath>
</defs>
</svg>
