<svg width="19" height="19" viewBox="0 0 19 19" fill="none" xmlns="http://www.w3.org/2000/svg">
<path d="M17.4707 18.2505L11.1707 11.9505C10.6707 12.3505 10.0957 12.6672 9.44567 12.9005C8.79567 13.1338 8.104 13.2505 7.37067 13.2505C5.554 13.2505 4.0165 12.6213 2.75817 11.363C1.49983 10.1047 0.870667 8.56715 0.870667 6.75049C0.870667 4.93382 1.49983 3.39632 2.75817 2.13799C4.0165 0.879655 5.554 0.250488 7.37067 0.250488C9.18733 0.250488 10.7248 0.879655 11.9832 2.13799C13.2415 3.39632 13.8707 4.93382 13.8707 6.75049C13.8707 7.48382 13.754 8.17549 13.5207 8.82549C13.2873 9.47549 12.9707 10.0505 12.5707 10.5505L18.8707 16.8505L17.4707 18.2505ZM7.37067 11.2505C8.62067 11.2505 9.68317 10.813 10.5582 9.93799C11.4332 9.06299 11.8707 8.00049 11.8707 6.75049C11.8707 5.50049 11.4332 4.43799 10.5582 3.56299C9.68317 2.68799 8.62067 2.25049 7.37067 2.25049C6.12067 2.25049 5.05817 2.68799 4.18317 3.56299C3.30817 4.43799 2.87067 5.50049 2.87067 6.75049C2.87067 8.00049 3.30817 9.06299 4.18317 9.93799C5.05817 10.813 6.12067 11.2505 7.37067 11.2505Z" fill="#474E62"/>
</svg>
